<?xml version="1.0" encoding="utf-8"?>
<!-- Generator: Adobe Illustrator 19.0.0, SVG Export Plug-In . SVG Version: 6.00 Build 0)  -->
<!DOCTYPE svg PUBLIC "-//W3C//DTD SVG 1.1//EN" "http://www.w3.org/Graphics/SVG/1.1/DTD/svg11.dtd">
<svg version="1.1" id="Layer_2" xmlns="http://www.w3.org/2000/svg" xmlns:xlink="http://www.w3.org/1999/xlink" x="0px" y="0px"
	 viewBox="0 0 85.9 85.9" enable-background="new 0 0 85.9 85.9" xml:space="preserve">
<g>
	<path fill="#FFFFFF" d="M64.4,21.5C64.4,9.6,54.8,0,42.9,0C31.1,0,21.5,9.6,21.5,21.5H64.4z"/>
	<path fill="#FFFFFF" d="M64.4,64.4c0,11.9-9.6,21.5-21.5,21.5c-11.9,0-21.5-9.6-21.5-21.5H64.4z"/>
	<path fill="#FFFFFF" d="M40.9,43c-10.9,1-19.4,10.2-19.4,21.4C9.6,64.4,0,54.8,0,42.9c0-11.9,9.6-21.5,21.5-21.5
		c0,11.2,8.5,20.3,19.4,21.4V43z"/>
	<path fill="#FFFFFF" d="M45,43c10.9,1,19.4,10.2,19.4,21.4c11.9,0,21.5-9.6,21.5-21.5c0-11.9-9.6-21.5-21.5-21.5
		c0,11.2-8.5,20.3-19.4,21.4V43z"/>
</g>
</svg>
